<svg width="30" height="30" viewBox="0 0 30 30" fill="none" xmlns="http://www.w3.org/2000/svg">
<path fill-rule="evenodd" clip-rule="evenodd" d="M6.34521 4H24.1548L26.5 10.396V12.4375C26.5 13.377 26.1471 14.2456 25.5625 14.8959V25.5625H4.9375V14.8959C4.35292 14.2456 4 13.377 4 12.4375V10.396L6.34521 4ZM22.9844 16.0536C23.2259 16.0536 23.461 16.0289 23.6875 15.9819V23.6875H19V18.0625H11.5V23.6875H6.8125V15.9819C7.03902 16.0289 7.27407 16.0536 7.51562 16.0536C8.54536 16.0536 9.45699 15.6042 10.0938 14.8959C10.7305 15.6042 11.6421 16.0536 12.6719 16.0536C13.7016 16.0536 14.6132 15.6042 15.25 14.8959C15.8868 15.6042 16.7984 16.0536 17.8281 16.0536C18.8579 16.0536 19.7695 15.6042 20.4062 14.8959C21.043 15.6042 21.9546 16.0536 22.9844 16.0536ZM13.375 23.6875H17.125V19.9375H13.375V23.6875ZM24.625 11.5V12.4375C24.625 13.4331 23.857 14.1786 22.9844 14.1786C22.1118 14.1786 21.3438 13.4331 21.3438 12.4375V11.5H24.625ZM24.2203 9.625L22.8453 5.875H7.65479L6.27979 9.625H24.2203ZM5.875 11.5V12.4375C5.875 13.4331 6.64299 14.1786 7.51562 14.1786C8.38826 14.1786 9.15625 13.4331 9.15625 12.4375V11.5H5.875ZM11.0312 11.5V12.4375C11.0312 13.4331 11.7992 14.1786 12.6719 14.1786C13.5445 14.1786 14.3125 13.4331 14.3125 12.4375V11.5H11.0312ZM16.1875 11.5V12.4375C16.1875 13.4331 16.9555 14.1786 17.8281 14.1786C18.7007 14.1786 19.4688 13.4331 19.4688 12.4375V11.5H16.1875Z" fill="white"/>
</svg>
